<svg id="Layer_1" data-name="Layer 1" xmlns="http://www.w3.org/2000/svg" xmlns:xlink="http://www.w3.org/1999/xlink" viewBox="0 0 324.49609 184.82599"><defs><style>.cls-1,.cls-11,.cls-7{fill:#00a4bf;}.cls-1,.cls-2,.cls-3{clip-rule:evenodd;}.cls-2,.cls-22,.cls-24{fill:#f68e55;}.cls-25,.cls-27,.cls-3{fill:#febb12;}.cls-4{fill:#fff;}.cls-5{fill:#33485c;}.cls-6{fill:#f47a57;}.cls-8{fill:#f0527d;}.cls-9{fill:#d6e8f7;}.cls-10{opacity:0.5;}.cls-11,.cls-22,.cls-25{fill-rule:evenodd;}.cls-12{clip-path:url(#clip-path);}.cls-13{fill:#f5c265;}.cls-14{fill:#e7f0f7;}.cls-15{opacity:0.2;}.cls-16{opacity:0.05;}.cls-17{fill:#010101;}.cls-18{fill:#c68249;}.cls-19{opacity:0.1;}.cls-20{fill:#23baa3;}.cls-21{fill:#6b75b8;}.cls-23{clip-path:url(#clip-path-2);}.cls-26{clip-path:url(#clip-path-3);}.cls-28{clip-path:url(#clip-path-4);}.cls-29{clip-path:url(#clip-path-5);}.cls-30{clip-path:url(#clip-path-6);}.cls-31{clip-path:url(#clip-path-7);}</style><clipPath id="clip-path"><path class="cls-1" d="M63.126,41.49107c-5.57341,1.83114-6.61361,3.0477-7.56615,8.8429-1.83075-5.58033-3.04535-6.62281-8.83378-7.5768,5.57341-1.83114,6.61361-3.0477,7.56615-8.8429,1.83075,5.58033,3.04535,6.62281,8.83378,7.5768"/></clipPath><clipPath id="clip-path-2"><path class="cls-2" d="M318.09773,97.89c2.21639-.5433,2.65624-0.984,3.19918-3.203,0.54295,2.21906.9828,2.65973,3.19918,3.203-2.21639.5433-2.65624,0.984-3.19918,3.203-0.54295-2.21906-.9828-2.65973-3.19918-3.203"/></clipPath><clipPath id="clip-path-3"><path class="cls-3" d="M310.74226,116.52364c4.16481-1.02092,4.99133-1.849,6.01158-6.01882,1.02025,4.16983,1.84677,4.9979,6.01158,6.01882-4.16481,1.02092-4.99133,1.849-6.01158,6.01882-1.02025-4.16983-1.84677-4.9979-6.01158-6.01882"/></clipPath><clipPath id="clip-path-4"><path class="cls-1" d="M303.974,139.7747c5.30784-1.30111,6.3612-2.35645,7.66146-7.67069,1.30025,5.31424,2.35362,6.36958,7.66146,7.67069-5.30784,1.30111-6.3612,2.35645-7.66146,7.67069-1.30026-5.31424-2.35362-6.36958-7.66146-7.67069"/></clipPath><clipPath id="clip-path-5"><path class="cls-2" d="M84.11632,12.97991c1.95942-.64377,2.32511-1.07146,2.66-3.10885C87.41994,11.8329,87.847,12.1994,89.882,12.53479c-1.95942.64377-2.32511,1.07146-2.66,3.10885-0.64363-1.96185-1.07064-2.32835-3.10565-2.66374"/></clipPath><clipPath id="clip-path-6"><path class="cls-3" d="M57.70894,16.17556c3.68194-1.2097,4.36912-2.01339,4.99839-5.84184,1.20944,3.68651,2.01184,4.37519,5.83582,5.00543-3.68194,1.2097-4.36912,2.01338-4.99839,5.84184-1.20944-3.68651-2.01184-4.37519-5.83582-5.00542"/></clipPath><clipPath id="clip-path-7"><path class="cls-1" d="M292.77586,97.77253c4.79719-1.17594,5.74921-2.12975,6.92438-6.93272,1.17516,4.803,2.12718,5.75678,6.92437,6.93272-4.79719,1.17594-5.74921,2.12975-6.92437,6.93272-1.17516-4.803-2.12718-5.75678-6.92438-6.93272"/></clipPath></defs><title>sales-bundle</title><path class="cls-4" d="M258.59965,52.01626l-10.67516,61.07088a10.887,10.887,0,0,1-12.599,8.84977l-58.09015-10.15413a10.887,10.887,0,0,1-8.84977-12.599L180.91841,27.4853a10.887,10.887,0,0,1,12.599-8.84977l47.79523,8.35458"/><path class="cls-4" d="M66.82966,52.01626l10.67516,61.07088a10.887,10.887,0,0,0,12.599,8.84977L148.194,111.78278a10.887,10.887,0,0,0,8.84977-12.599L144.5109,27.4853a10.887,10.887,0,0,0-12.599-8.84977L84.11665,26.99011"/><path class="cls-5" d="M76.05321,125.44949L63.56777,54.0223l-0.002-.01153-0.00846-.04843h0a2.29744,2.29744,0,0,1,.59808-1.9487l18.704-26.62806a2.3042,2.3042,0,0,1,1.63026-1.22369h0l0.04612-.00806,0.01614-.00282,49.61289-8.67231a9.36443,9.36443,0,0,1,10.83653,7.61177l15.31758,87.62941a9.36443,9.36443,0,0,1-7.61177,10.83653L86.88973,133.06127A9.36443,9.36443,0,0,1,76.05321,125.44949Zm-5.1023-75.15605,15.26366-2.66808L83.54649,32.3617Zm9.71438,74.34986a4.68371,4.68371,0,0,0,5.41826,3.80589L151.901,116.94434a4.68371,4.68371,0,0,0,3.80589-5.41826L140.38926,23.89666a4.68371,4.68371,0,0,0-5.41826-3.80589l-47.36911,8.2801,3.62785,20.75433a2.34036,2.34036,0,0,1-1.90294,2.70913L68.57246,55.46219Z"/><rect class="cls-6" x="122.7039" y="68.09476" width="11.00621" height="16.10275" rx="2" ry="2" transform="translate(267.61062 129.07915) rotate(170.0849)"/><rect class="cls-7" x="103.51045" y="43.8755" width="11.00621" height="43.46954" rx="2" ry="2" transform="translate(227.69624 111.46968) rotate(170.0849)"/><rect class="cls-8" x="88.00485" y="62.17132" width="11.00621" height="28.00135" rx="2" ry="2" transform="translate(198.73524 135.10528) rotate(170.0849)"/><path class="cls-5" d="M93.29889,115.34477l47.36911-8.2801a2.341,2.341,0,1,0-.80619-4.61207L92.4927,110.7327A2.341,2.341,0,1,0,93.29889,115.34477Z"/><path class="cls-5" d="M91.30342,103.929l47.36911-8.2801a2.341,2.341,0,1,0-.80619-4.61207l-47.36911,8.2801A2.341,2.341,0,0,0,91.30342,103.929Z"/><polygon class="cls-9" points="83.546 32.362 86.215 47.625 70.951 50.293 83.546 32.362"/><path class="cls-5" d="M38.33023,181.32637a6.99006,6.99006,0,0,1-6.93945-6.29687l-6.002-60.52637a6.99409,6.99409,0,0,1,6.26172-7.64258l66.46-6.59082a6.98443,6.98443,0,0,1,7.64258,6.26367l6.00293,60.52441a6.98746,6.98746,0,0,1-6.26367,7.64258l-66.459,6.59082Q38.68033,181.32637,38.33023,181.32637ZM98.505,104.2502L32.046,110.841a2.987,2.987,0,0,0-2.67676,3.2666l6.002,60.52637a2.987,2.987,0,0,0,3.2666,2.67676l66.46-6.59082a2.99072,2.99072,0,0,0,2.67773-3.26758l-6.00293-60.52441A2.99322,2.99322,0,0,0,98.505,104.2502h0Z"/><path class="cls-4" d="M38.33065,184.826a10.489,10.489,0,0,1-10.42187-9.4502l-6.00293-60.52734a10.49389,10.49389,0,0,1,9.39941-11.4707l66.46-6.5918a10.48577,10.48577,0,0,1,11.47168,9.40332l6.00293,60.52246a10.49024,10.49024,0,0,1-9.40234,11.47168l-66.458,6.59082Q38.8536,184.8255,38.33065,184.826Zm-5.42773-70.55273,5.90137,59.50391,65.43848-6.49023L98.34042,107.783Zm65.94141-6.54h0Z"/><path class="cls-5" d="M235.25141,133.99326l-65.47387-13.3216a9.36443,9.36443,0,0,1-7.309-11.043l17.7364-87.172a9.36443,9.36443,0,0,1,11.043-7.309l49.35393,10.04176,0.01606,0.00327,0.04588,0.00934h0a2.3042,2.3042,0,0,1,1.59578,1.26833l17.96008,27.1354a2.29744,2.29744,0,0,1,.54393,1.96451h0l-0.0098.04817-0.00233.01147-14.457,71.05438A9.36443,9.36443,0,0,1,235.25141,133.99326Zm6.1283-100.5685-3.0894,15.184,15.184,3.0894Zm14.32911,23.506L235.06281,52.73a2.34036,2.34036,0,0,1-1.82725-2.76075l4.20073-20.646-47.12187-9.58762a4.68371,4.68371,0,0,0-5.5215,3.65451l-17.7364,87.172a4.68371,4.68371,0,0,0,3.65451,5.5215l65.47387,13.3216a4.68371,4.68371,0,0,0,5.5215-3.65451Z"/><path class="cls-5" d="M229.33492,116.10621l-47.12187-9.58762a2.341,2.341,0,0,1,.93349-4.588l47.12187,9.58762A2.341,2.341,0,0,1,229.33492,116.10621Z"/><path class="cls-5" d="M231.76612,104.15721l-47.12187-9.58762a2.341,2.341,0,0,1,.93349-4.588l47.12187,9.58762A2.341,2.341,0,1,1,231.76612,104.15721Z"/><polygon class="cls-9" points="241.38 33.425 238.29 48.609 253.474 51.698 241.38 33.425"/><path class="cls-5" d="M234.19731,92.2082l-47.12187-9.58762a2.341,2.341,0,1,1,.93349-4.588l47.12187,9.58762A2.341,2.341,0,0,1,234.19731,92.2082Z"/><path class="cls-5" d="M236.62851,80.2592l-47.12187-9.58762a2.341,2.341,0,0,1,.93349-4.588L237.562,75.6712A2.341,2.341,0,1,1,236.62851,80.2592Z"/><path class="cls-5" d="M239.0597,68.3102l-47.12187-9.58762a2.341,2.341,0,1,1,.93349-4.588L239.9932,63.7222A2.341,2.341,0,0,1,239.0597,68.3102Z"/><path class="cls-5" d="M204.83776,47.27245l-0.60106-3.37913-6.16629-1.25468L196.264,45.5283l-4.185-.85215,9.92461-14.57052,3.735,0.75931L209.113,48.14261Zm-1.8996-12.54913-3.137,5.05668,4.00459,0.81516Z"/><path class="cls-5" d="M294.205,108.71638l-79.14145-6.2603a6.50753,6.50753,0,0,0-6.99232,5.96719l-4.41126,55.76623a6.50753,6.50753,0,0,0,5.96719,6.99232l79.14145,6.2603a6.50753,6.50753,0,0,0,6.99232-5.96719l4.41126-55.76623A6.50753,6.50753,0,0,0,294.205,108.71638Zm-3.21972,59.72506-23.22362-27.21331h-0.00006l27.21334-23.22325Zm1.45825-54.84878L252.35887,147.8a1.52118,1.52118,0,0,1-2.11449-.16726l-34.208-40.08406ZM208.85317,161.944l3.98962-50.436,23.2236,27.21282Zm2.58665,4.36564,27.872-23.78579,7.12965,8.35429a6.50944,6.50944,0,0,0,9.16278.7248l8.35426-7.12934,23.78531,27.8719Z"/><path class="cls-4" d="M289.28671,180.46271c-0.25,0-.501-0.00977-0.75488-0.03027l-79.14062-6.26074a9.5053,9.5053,0,0,1-8.72168-10.21875l4.41113-55.76562a9.51948,9.51948,0,0,1,10.21875-8.72168l79.1416,6.26074a9.5053,9.5053,0,0,1,8.72168,10.21875l-4.41113,55.7666A9.51478,9.51478,0,0,1,289.28671,180.46271Zm-70.38965-16.57324,61.86328,4.89453-17.13672-20.08105-6.07227,5.18262a9.51183,9.51183,0,0,1-13.3916-1.05957l-5.18262-6.07227Zm53.09375-22.32617L288.565,160.98517l2.84863-35.99707Zm-56.72852-22.59863-2.84766,35.99609,19.42188-16.5752Zm7.75781-7.85449,28.53223,33.43359,33.43457-28.53125Z"/><g class="cls-10"><path class="cls-11" d="M63.126,41.49107c-5.57341,1.83114-6.61361,3.0477-7.56615,8.8429-1.83075-5.58033-3.04535-6.62281-8.83378-7.5768,5.57341-1.83114,6.61361-3.0477,7.56615-8.8429,1.83075,5.58033,3.04535,6.62281,8.83378,7.5768"/><g class="cls-12"><rect class="cls-7" x="38.31778" y="25.5059" width="33.21661" height="33.23644" transform="translate(-3.07944 4.35277) rotate(-4.41456)"/></g></g><rect class="cls-4" x="32.22055" y="125.56872" width="75.79356" height="50.73313" rx="3.11621" ry="3.11621" transform="translate(-14.14504 7.41611) rotate(-5.50054)"/><rect class="cls-9" x="27.46054" y="105.99281" width="76.1517" height="19.67312" transform="translate(-11.11177 7.03359) rotate(-5.664)"/><path class="cls-5" d="M38.16948,181.7767A6.99006,6.99006,0,0,1,31.23,175.47982l-6.002-60.52637a6.99409,6.99409,0,0,1,6.26172-7.64258l66.46-6.59082a6.98443,6.98443,0,0,1,7.64258,6.26367l6.00293,60.52441a6.98746,6.98746,0,0,1-6.26367,7.64258l-66.459,6.59082Q38.51958,181.7767,38.16948,181.7767Zm60.1748-77.07617-66.459,6.59082a2.987,2.987,0,0,0-2.67676,3.2666l6.002,60.52637a2.987,2.987,0,0,0,3.2666,2.67676l66.46-6.59082a2.99072,2.99072,0,0,0,2.67773-3.26758l-6.00293-60.52441a2.99322,2.99322,0,0,0-3.26758-2.67773h0Z"/><rect class="cls-5" x="28.53046" y="124.61265" width="76.15108" height="3.99997" transform="matrix(0.99512, -0.09863, 0.09863, 0.99512, -12.16346, 7.18697)"/><rect class="cls-5" x="51.01818" y="135.24609" width="7.91493" height="7.91493" rx="0.90779" ry="0.90779" transform="translate(-13.47024 6.10542) rotate(-5.664)"/><rect class="cls-5" x="63.95908" y="133.96263" width="7.91493" height="7.91493" rx="0.90779" ry="0.90779" transform="translate(-13.28038 7.37635) rotate(-5.664)"/><rect class="cls-5" x="76.89999" y="132.67916" width="7.91493" height="7.91493" rx="0.90779" ry="0.90779" transform="translate(-13.09053 8.64729) rotate(-5.664)"/><rect class="cls-5" x="89.84089" y="131.3957" width="7.91493" height="7.91493" rx="0.90779" ry="0.90779" transform="translate(-12.90068 9.91822) rotate(-5.664)"/><rect class="cls-5" x="52.21896" y="147.35336" width="7.91493" height="7.91493" rx="0.90779" ry="0.90779" transform="translate(-14.65929 6.28304) rotate(-5.664)"/><rect class="cls-5" x="39.27806" y="148.63682" width="7.91493" height="7.91493" rx="0.90779" ry="0.90779" transform="translate(-14.84915 5.01211) rotate(-5.664)"/><rect class="cls-5" x="65.15987" y="146.06989" width="7.91493" height="7.91493" rx="0.90779" ry="0.90779" transform="matrix(0.99512, -0.09869, 0.09869, 0.99512, -14.46944, 7.55398)"/><rect class="cls-5" x="78.10077" y="144.78643" width="7.91493" height="7.91493" rx="0.90779" ry="0.90779" transform="matrix(0.99512, -0.09869, 0.09869, 0.99512, -14.27959, 8.82491)"/><rect class="cls-5" x="91.04168" y="143.50297" width="7.91493" height="7.91493" rx="0.90779" ry="0.90779" transform="translate(-14.08974 10.09584) rotate(-5.664)"/><rect class="cls-5" x="53.46708" y="159.9379" width="7.91493" height="7.91493" rx="0.90779" ry="0.90779" transform="translate(-15.89523 6.46767) rotate(-5.664)"/><rect class="cls-5" x="40.52618" y="161.22136" width="7.91493" height="7.91493" rx="0.90779" ry="0.90779" transform="translate(-16.08508 5.19674) rotate(-5.664)"/><rect class="cls-5" x="66.40799" y="158.65444" width="7.91493" height="7.91493" rx="0.90779" ry="0.90779" transform="translate(-15.70538 7.7386) rotate(-5.664)"/><rect class="cls-5" x="79.34889" y="157.37097" width="7.91493" height="7.91493" rx="0.90779" ry="0.90779" transform="translate(-15.51552 9.00953) rotate(-5.664)"/><rect class="cls-5" x="92.2898" y="156.08751" width="7.91493" height="7.91493" rx="0.90779" ry="0.90779" transform="translate(-15.32567 10.28046) rotate(-5.664)"/><rect class="cls-13" x="79.90581" y="96.86709" width="9.61539" height="19.13511" rx="4.80769" ry="4.80769" transform="translate(-10.09091 8.88038) rotate(-5.66399)"/><path class="cls-5" d="M85.17827,117.97885a6.81643,6.81643,0,0,1-6.76953-6.13574l-0.93945-9.47363a6.8076,6.8076,0,1,1,13.54883-1.34277l0.93945,9.47266a6.80665,6.80665,0,0,1-6.10254,7.44629C85.62846,117.9681,85.4019,117.97885,85.17827,117.97885ZM84.24858,98.89a2.73018,2.73018,0,0,0-.28223.01367,2.81219,2.81219,0,0,0-2.5166,3.07129l0.93945,9.47363a2.80763,2.80763,0,1,0,5.58789-.55371l-0.93945-9.47363A2.80963,2.80963,0,0,0,84.24858,98.89Z"/><rect class="cls-13" x="40.76439" y="100.7494" width="9.61539" height="19.13511" rx="4.80769" ry="4.80769" transform="translate(-10.66521 5.03632) rotate(-5.66401)"/><path class="cls-5" d="M46.03764,121.86166a6.81878,6.81878,0,0,1-6.77051-6.13574l-0.93945-9.47363a6.80765,6.80765,0,1,1,13.54883-1.34375l0.93945,9.47363a6.80831,6.80831,0,0,1-6.10156,7.44629h-0.001C46.48686,121.85092,46.2603,121.86166,46.03764,121.86166ZM45.107,102.77279a2.74343,2.74343,0,0,0-.28223.01367,2.81107,2.81107,0,0,0-2.5166,3.07129l0.93945,9.47266a2.8131,2.8131,0,0,0,3.07031,2.51758h0a2.8074,2.8074,0,0,0,2.51758-3.07031L47.896,105.30306A2.80584,2.80584,0,0,0,45.107,102.77279Z"/><rect class="cls-4" x="218.21775" y="94.9988" width="66.4118" height="89" rx="6.26159" ry="6.26159" transform="translate(92.53291 379.13916) rotate(-85.47717)"/><path class="cls-5" d="M293.71257,108.26608l-79.14145-6.2603a6.50753,6.50753,0,0,0-6.99232,5.96719l-4.41126,55.76623a6.50753,6.50753,0,0,0,5.96719,6.99232l79.14145,6.2603a6.50753,6.50753,0,0,0,6.99232-5.96719l4.41126-55.76623A6.50753,6.50753,0,0,0,293.71257,108.26608Zm-3.21972,59.72506-23.22362-27.21331h-0.00006l27.21334-23.22325Zm1.45825-54.84878-40.08462,34.20732a1.52118,1.52118,0,0,1-2.11449-.16726l-34.208-40.08406Zm-83.59032,48.3513,3.98962-50.436,23.2236,27.21282Zm2.58665,4.36564,27.872-23.78579,7.12965,8.35429a6.50944,6.50944,0,0,0,9.16278.7248l8.35426-7.12934,23.78531,27.8719Z"/><path class="cls-9" d="M210.94743,165.8593l27.872-23.78579,7.12965,8.35429a6.50944,6.50944,0,0,0,9.16278.7248l8.35426-7.12934,23.78531,27.8719Z"/><polygon class="cls-14" points="290.493 167.991 267.269 140.778 267.269 140.778 294.483 117.555 290.493 167.991"/><polygon class="cls-14" points="208.361 161.494 212.35 111.058 235.574 138.271 208.361 161.494"/><path class="cls-4" d="M291.89957,113.13828l-27.872,23.78579-9.132,7.84066c-0.86582.76028-1.9622,1.73988-2.81546,2.50535a1.77269,1.77269,0,0,1-2.54878-.18906l-4.89451-5.89245-5.25594-6.21423-23.78531-27.8719Z"/><rect class="cls-13" x="145.02433" y="68.70238" width="34" height="7"/><rect class="cls-5" x="96.43164" y="81.05562" width="131.69434" height="99.08398" rx="14.92285" ry="14.92285"/><path class="cls-4" d="M213.203,82.5555A13.42246,13.42246,0,0,1,226.62549,95.978v69.23914A13.42247,13.42247,0,0,1,213.203,178.63967H111.35449a13.42258,13.42258,0,0,1-13.42261-13.42255V95.978A13.42256,13.42256,0,0,1,111.35449,82.5555H213.203m0-3H111.35449A16.44115,16.44115,0,0,0,94.93189,95.978v69.23914a16.4412,16.4412,0,0,0,16.42261,16.42255H213.203a16.4411,16.4411,0,0,0,16.42249-16.42255V95.978A16.441,16.441,0,0,0,213.203,79.5555h0Z"/><g class="cls-15"><polyline class="cls-4" points="151.728 75.702 158.728 68.702 145.024 68.702 145.024 75.702"/></g><g class="cls-16"><polygon class="cls-17" points="179.024 75.702 179.024 68.702 171.588 68.702 164.588 75.702 179.024 75.702"/></g><path class="cls-18" d="M136.5343,83.51073h-24.265a12.7599,12.7599,0,0,0-12.745,12.745v67.92258a12.7599,12.7599,0,0,0,12.745,12.745h99.51a12.7599,12.7599,0,0,0,12.745-12.745V96.25574a12.7599,12.7599,0,0,0-12.745-12.745h-75.245Z"/><path class="cls-5" d="M213.24952,82.17494h-24.982V76.66305c0-3.61723-3.36278-6.56081-7.49807-6.56081V68.4117a1.874,1.874,0,0,0-1.87452-1.87452H145.15369a1.874,1.874,0,0,0-1.87452,1.87452v1.69054c-4.13529,0-7.49806,2.94358-7.49806,6.56081v5.51188h-24.982A13.13694,13.13694,0,0,0,97.67753,95.29655v69.841a13.13694,13.13694,0,0,0,13.12161,13.12161H213.24952a13.13694,13.13694,0,0,0,13.12161-13.12161v-69.841A13.13694,13.13694,0,0,0,213.24952,82.17494ZM147.0282,70.28622h29.99226v3.83232H147.0282V70.28622Zm-7.49806,6.37683c0-1.524,1.71709-2.81177,3.749-2.81177v2.14178a1.874,1.874,0,0,0,1.87452,1.87452H178.895a1.874,1.874,0,0,0,1.87452-1.87452V73.85128c2.03195,0,3.749,1.28781,3.749,2.81177v5.51188H139.53014V76.66305Zm83.092,88.47446a9.38361,9.38361,0,0,1-9.37258,9.37258H110.79915a9.38361,9.38361,0,0,1-9.37258-9.37258V131.93806a13.121,13.121,0,0,0,5.83224,3.45728v24.21931a9.38361,9.38361,0,0,0,9.37258,9.37258h33.88408a9.38361,9.38361,0,0,0,9.37258-9.37258V135.89429h4.27258v23.72036a9.38361,9.38361,0,0,0,9.37258,9.37258h33.88408a9.38361,9.38361,0,0,0,9.37258-9.37258V135.3926a13.14141,13.14141,0,0,0,5.83224-3.45454v33.19946Zm-95.31558-12.73138,5.15492,3.749a1.87177,1.87177,0,0,0,2.204,0l5.15492-3.749a1.87409,1.87409,0,0,0,.77251-1.51572V138.95685a3.75726,3.75726,0,0,0,2.302-3.06256H156.139v23.72036a5.6297,5.6297,0,0,1-5.62355,5.62355H116.63138a5.6297,5.6297,0,0,1-5.62355-5.62355V135.89429H124.232a3.75726,3.75726,0,0,0,2.302,3.06256v11.93357A1.87409,1.87409,0,0,0,127.30651,152.40614Zm9.53733-13.16921v10.69884l-3.2804,2.38616-3.2804-2.38616V139.23693h6.56081Zm47.38444,13.16921,5.15492,3.749a1.87177,1.87177,0,0,0,2.204,0l5.15492-3.749a1.87409,1.87409,0,0,0,.77251-1.51572V138.958a3.74178,3.74178,0,0,0,2.302-3.06371h13.22422v23.72036a5.6297,5.6297,0,0,1-5.62355,5.62355H173.5332a5.6297,5.6297,0,0,1-5.62355-5.62355V135.89429h13.24417a3.74178,3.74178,0,0,0,2.302,3.06371v11.93242A1.87409,1.87409,0,0,0,184.22829,152.40614Zm9.53733-13.16921v10.69884l-3.2804,2.38616-3.2804-2.38616V139.23693h6.56081Zm28.85647-36.4533v19.989a9.38361,9.38361,0,0,1-9.37258,9.37258H199.8578v-6.02994a3.75333,3.75333,0,0,0-3.749-3.749h-11.2471a3.75333,3.75333,0,0,0-3.749,3.749v6.02994H142.936v-6.02994a3.75333,3.75333,0,0,0-3.749-3.749h-11.2471a3.75333,3.75333,0,0,0-3.749,3.749v6.02994H110.79915a9.38361,9.38361,0,0,1-9.37258-9.37258V95.29655a9.38361,9.38361,0,0,1,9.37258-9.37258H213.24952a9.38361,9.38361,0,0,1,9.37258,9.37258v7.48708Z"/><rect class="cls-13" x="127.93989" y="126.11532" width="11.24435" height="9.37258"/><rect class="cls-13" x="184.86167" y="126.11532" width="11.2471" height="9.37258"/><g class="cls-15"><path class="cls-4" d="M156.139,159.61467l-40.881,5.44678a5.59576,5.59576,0,0,0,1.37341.17676h33.88409A5.62974,5.62974,0,0,0,156.139,159.61467Z"/></g><g class="cls-15"><path class="cls-4" d="M213.04082,159.61467l-40.64758,5.50708a5.63166,5.63166,0,0,0,1.14.11646h33.88409A5.62971,5.62971,0,0,0,213.04082,159.61467Z"/></g><g class="cls-19"><path class="cls-17" d="M140.59288,138.95683v1.18091l15.54614,1.30151v-5.545h-13.2442A3.75714,3.75714,0,0,1,140.59288,138.95683Z"/><path class="cls-17" d="M124.232,135.89421H111.00786v1.7666l15.52612,1.2998v-0.00378A3.75725,3.75725,0,0,1,124.232,135.89421Z"/></g><g class="cls-19"><path class="cls-17" d="M197.51463,138.95793v1.05591l15.52618,1.2417v-5.36133H199.81663A3.74163,3.74163,0,0,1,197.51463,138.95793Z"/><path class="cls-17" d="M167.90965,135.89421v1.7522l15.37885,1.22986a3.73735,3.73735,0,0,1-2.13464-2.98206h-13.2442Z"/></g><g class="cls-19"><polygon class="cls-17" points="130.283 139.237 130.283 146.851 136.844 144.706 136.844 139.237 130.283 139.237"/></g><g class="cls-19"><polygon class="cls-17" points="187.205 139.237 187.205 146.25 193.766 143.684 193.766 139.237 187.205 139.237"/></g><path class="cls-5" d="M133.56344,147.14139a1.85655,1.85655,0,1,1,1.33083-.54368A1.97265,1.97265,0,0,1,133.56344,147.14139Z"/><path class="cls-5" d="M189.15439,146.5977a1.90066,1.90066,0,1,1,1.33083.54368A1.97441,1.97441,0,0,1,189.15439,146.5977Z"/><g class="cls-19"><path class="cls-17" d="M107.25877,140.32951v-4.9342a13.12133,13.12133,0,0,1-5.83221-3.45728v10.21179Z"/></g><g class="cls-19"><polygon class="cls-17" points="159.888 143.655 164.161 142.604 164.161 135.894 159.888 135.894 159.888 143.655"/></g><g class="cls-19"><path class="cls-17" d="M216.78984,143.51445l5.83228,1.53784V131.938a13.14067,13.14067,0,0,1-5.83228,3.45447v8.12195Z"/></g><g class="cls-15"><path class="cls-4" d="M216.74589,86.60735a9.31011,9.31011,0,0,0-3.4964-.68335H110.79918a9.37524,9.37524,0,0,0-8.40717,5.25586Z"/></g><g class="cls-15"><polygon class="cls-4" points="127.94 126.115 127.94 135.488 130.919 126.115 127.94 126.115"/></g><g class="cls-15"><polygon class="cls-4" points="184.862 126.115 184.862 135.488 187.927 126.115 184.862 126.115"/></g><g class="cls-16"><polygon class="cls-17" points="196.109 135.488 196.109 132.981 184.862 135.488 196.109 135.488"/></g><g class="cls-16"><polygon class="cls-17" points="139.182 135.488 139.183 132.718 127.94 135.488 139.182 135.488"/></g><g class="cls-19"><rect class="cls-17" x="142.93602" y="130.14519" width="38.17664" height="2"/><path class="cls-17" d="M213.24949,130.14519H199.85783v2h13.39166a9.38364,9.38364,0,0,0,9.37262-9.37256v-2A9.38364,9.38364,0,0,1,213.24949,130.14519Z"/><path class="cls-17" d="M110.79918,132.14519h13.39166v-2H110.79918a9.3836,9.3836,0,0,1-9.37262-9.37256v2A9.3836,9.3836,0,0,0,110.79918,132.14519Z"/></g><path class="cls-5" d="M171.39692,124.64719H152.65175a1.874,1.874,0,0,1-1.87452-1.87452V110.27461a1.874,1.874,0,0,1,1.87452-1.87452h18.74516a1.874,1.874,0,0,1,1.87452,1.87452v12.49806A1.874,1.874,0,0,1,171.39692,124.64719Zm-16.87065-3.749H169.5224v-3.749H154.52627v3.749Z"/><rect class="cls-9" x="154.52627" y="112.14913" width="14.99613" height="8.74903"/><path class="cls-5" d="M166.649,115.64877h-9.25a0.5,0.5,0,0,1,0-1h9.25A0.5,0.5,0,0,1,166.649,115.64877Z"/><path class="cls-5" d="M166.649,118.39779h-9.25a0.5,0.5,0,1,1,0-1h9.25A0.5,0.5,0,0,1,166.649,118.39779Z"/><g class="cls-10"><path class="cls-20" d="M238.20066,18.71311a0.99989,0.99989,0,0,1-.87641-0.99255L237.328,0.99982a0.99982,0.99982,0,0,1,.99984-0.99949,0.989,0.989,0,0,1,.99949.99984l-0.00372,16.72074a0.99982,0.99982,0,0,1-.99984.99949A0.87683,0.87683,0,0,1,238.20066,18.71311Z"/></g><g class="cls-10"><path class="cls-6" d="M252.525,22.22649a0.99978,0.99978,0,0,1-.77206-1.44018l3.74021-7.47667a1.00014,1.00014,0,0,1,1.7887.89537l-3.74021,7.47667A1.001,1.001,0,0,1,252.525,22.22649Z"/></g><g class="cls-10"><path class="cls-21" d="M270.308,45.2172a0.99945,0.99945,0,0,1-.85252-0.77117l-0.023-.10122a0.99927,0.99927,0,0,1,.76572-1.19955l8.23238-1.76238a1.00032,1.00032,0,1,1,.41819,1.95645l-7.79672,1.66847A1.0042,1.0042,0,0,1,270.308,45.2172Z"/></g><g class="cls-10"><path class="cls-20" d="M286.34642,63.91942a0.8773,0.8773,0,0,1-.11063-0.02052l-16.25307-3.92715a0.99966,0.99966,0,0,1,.46873-1.9436L286.708,61.94294a0.99831,0.99831,0,0,1,.72835,1.24391A1.0151,1.0151,0,0,1,286.34642,63.91942Z"/></g><g class="cls-10"><path class="cls-6" d="M269.94466,78.58432a0.99869,0.99869,0,0,1-.513-0.22064l-6.44926-5.32274a1.0002,1.0002,0,0,1,1.27251-1.54347l6.44926,5.32274A1,1,0,0,1,269.94466,78.58432Z"/></g><g class="cls-10"><path class="cls-8" d="M264.1163,31.75058a1,1,0,0,1-.50387-1.77218L276.62881,19.519a1,1,0,0,1,1.2523,1.55937L264.86473,31.53777A0.99836,0.99836,0,0,1,264.1163,31.75058Z"/></g><g class="cls-10"><path class="cls-20" d="M1.00107,145.32985a0.99992,0.99992,0,0,1-.4375-1.89941l15.04395-7.29883a0.99975,0.99975,0,1,1,.873,1.79883L1.43661,145.22926A0.99307,0.99307,0,0,1,1.00107,145.32985Z"/></g><g class="cls-10"><path class="cls-6" d="M12.94833,123.6111H12.93661l-8.35937-.09961a1,1,0,0,1,.01172-2H4.60068l8.35937,0.09961A1,1,0,0,1,12.94833,123.6111Z"/></g><g class="cls-10"><path class="cls-21" d="M25.78232,97.63746a1.01816,1.01816,0,0,1-.12109-0.00684,0.99755,0.99755,0,0,1-.667-0.37793L19.81454,90.617a0.9998,0.9998,0,1,1,1.57617-1.23047L26.296,95.67067a0.98966,0.98966,0,0,1,.35449.28418,1.00012,1.00012,0,0,1-.168,1.4043l-0.082.06445A1,1,0,0,1,25.78232,97.63746Z"/></g><g class="cls-10"><path class="cls-20" d="M39.24716,91.31129a0.99943,0.99943,0,0,1-.97559-0.78613l-3.57715-16.333a0.99841,0.99841,0,0,1,.73438-1.18359,1.00748,1.00748,0,0,1,1.23047.75391L40.2247,90.0984a0.99857,0.99857,0,0,1-.7627,1.18945A1.0189,1.0189,0,0,1,39.24716,91.31129Z"/></g><g class="cls-10"><path class="cls-6" d="M54.06845,91.45192a0.98318,0.98318,0,0,1-.23633-0.02832,0.99969,0.99969,0,0,1-.73633-1.207l1.9707-8.126a0.99978,0.99978,0,0,1,1.94336.4707l-1.9707,8.126A0.99965,0.99965,0,0,1,54.06845,91.45192Z"/></g><g class="cls-10"><path class="cls-8" d="M16.45224,109.02418a0.99732,0.99732,0,0,1-.42676-0.0957l-15.09375-7.1416a1.00035,1.00035,0,1,1,.85547-1.80859l15.09375,7.1416A1.00012,1.00012,0,0,1,16.45224,109.02418Z"/></g><path class="cls-22" d="M318.09773,97.89c2.21639-.5433,2.65624-0.984,3.19918-3.203,0.54295,2.21906.9828,2.65973,3.19918,3.203-2.21639.5433-2.65624,0.984-3.19918,3.203-0.54295-2.21906-.9828-2.65973-3.19918-3.203"/><g class="cls-23"><rect class="cls-24" x="314.83647" y="91.42568" width="12.92088" height="12.92859"/></g><path class="cls-25" d="M310.74226,116.52364c4.16481-1.02092,4.99133-1.849,6.01158-6.01882,1.02025,4.16983,1.84677,4.9979,6.01158,6.01882-4.16481,1.02092-4.99133,1.849-6.01158,6.01882-1.02025-4.16983-1.84677-4.9979-6.01158-6.01882"/><g class="cls-26"><rect class="cls-27" x="304.61404" y="104.3766" width="24.2796" height="24.29409"/></g><g class="cls-10"><path class="cls-11" d="M303.974,139.7747c5.30784-1.30111,6.3612-2.35645,7.66146-7.67069,1.30025,5.31424,2.35362,6.36958,7.66146,7.67069-5.30784,1.30111-6.3612,2.35645-7.66146,7.67069-1.30026-5.31424-2.35362-6.36958-7.66146-7.67069"/><g class="cls-28"><rect class="cls-7" x="296.16388" y="124.29389" width="30.94315" height="30.96162"/></g></g><path class="cls-22" d="M84.11632,12.97991c1.95942-.64377,2.32511-1.07146,2.66-3.10885C87.41994,11.8329,87.847,12.1994,89.882,12.53479c-1.95942.64377-2.32511,1.07146-2.66,3.10885-0.64363-1.96185-1.07064-2.32835-3.10565-2.66374"/><g class="cls-29"><rect class="cls-24" x="81.16024" y="6.91496" width="11.6778" height="11.68477" transform="translate(-0.72386 6.73439) rotate(-4.41456)"/></g><path class="cls-20" d="M285.17683,140.78045a3.26112,3.26112,0,0,1-.498-0.03809,3.30552,3.30552,0,0,1-1.57031-.68848l-2.49609-1.99609-3.16211-.48145a3.31922,3.31922,0,0,1-2.58594-2.07129l-1.16211-2.97754-2.49707-1.99707a3.323,3.323,0,0,1-1.20508-3.083l0.48242-3.16211-1.16406-2.97852a3.31871,3.31871,0,0,1,.499-3.27246l1.99707-2.498,0.48145-3.16211a3.31923,3.31923,0,0,1,2.06934-2.585l2.97852-1.16309,1.99707-2.49707a3.31743,3.31743,0,0,1,3.083-1.20508l3.16211,0.48242,2.97949-1.16406a3.31249,3.31249,0,0,1,3.27051.49707l2.499,1.999,3.16113,0.48145a3.31886,3.31886,0,0,1,2.585,2.06934l1.16309,2.97754,2.498,1.998a3.32382,3.32382,0,0,1,1.20508,3.084l-0.48242,3.16113,1.165,2.97949a3.32765,3.32765,0,0,1-.49707,3.27051l-1.999,2.499-0.48145,3.16113a3.31922,3.31922,0,0,1-2.07129,2.58594l-2.97656,1.16211-1.99707,2.498a3.31919,3.31919,0,0,1-3.084,1.20508l-3.16211-.48242-2.97754,1.16406A3.32137,3.32137,0,0,1,285.17683,140.78045Z"/><path class="cls-4" d="M285.17635,141.78009a4.31217,4.31217,0,0,1-2.69336-.94629l-2.28613-1.82812-2.89746-.44141a4.32106,4.32106,0,0,1-3.36719-2.69629l-1.06445-2.72754-2.28809-1.8291a4.32779,4.32779,0,0,1-1.56836-4.01465l0.44141-2.89746-1.06641-2.72852a4.3214,4.3214,0,0,1,.65039-4.26172l1.8291-2.28809,0.44141-2.89746a4.32219,4.32219,0,0,1,2.69434-3.36621l2.72852-1.06543,1.8291-2.28809a4.3111,4.3111,0,0,1,4.01563-1.56836l2.89648,0.44141,2.72949-1.06641a4.3699,4.3699,0,0,1,4.25879.64746l2.29,1.832,2.89648,0.44141a4.3207,4.3207,0,0,1,3.36621,2.69434l1.06543,2.72754,2.28906,1.83008a4.32862,4.32862,0,0,1,1.56836,4.01563l-0.44141,2.89648,1.06738,2.72949a4.3329,4.3329,0,0,1-.64648,4.25781l-1.833,2.291-0.44141,2.89648a4.32106,4.32106,0,0,1-2.69629,3.36719l-2.72656,1.06445-1.8291,2.28809a4.29806,4.29806,0,0,1-4.01562,1.56934l-2.89746-.44141-2.72754,1.06641A4.34181,4.34181,0,0,1,285.17635,141.78009Zm-3.251-35.89355a2.30367,2.30367,0,0,0-1.80469.86816l-2.16406,2.70508-3.22852,1.26074a2.31627,2.31627,0,0,0-1.44434,1.80371l-0.52148,3.42676-2.16406,2.707a2.3154,2.3154,0,0,0-.34863,2.28418l1.26172,3.22852-0.52344,3.42676a2.32055,2.32055,0,0,0,.84277,2.15234l2.70508,2.16406,1.25977,3.22754a2.31812,2.31812,0,0,0,1.80469,1.44629l3.42676,0.52148,2.70605,2.16309a2.3124,2.3124,0,0,0,2.28906.34766l3.22461-1.26074,3.42676,0.52344a2.32152,2.32152,0,0,0,2.1543-.84277l2.16309-2.70605,3.22656-1.25977a2.31812,2.31812,0,0,0,1.44629-1.80469l0.52148-3.42578,2.166-2.709a2.32077,2.32077,0,0,0,.3457-2.2832l-1.26172-3.22754,0.52344-3.42578a2.32226,2.32226,0,0,0-.84277-2.15332l-2.70605-2.165-1.26074-3.22656a2.31555,2.31555,0,0,0-1.80371-1.44531l-3.42578-.52148-2.709-2.166a2.34674,2.34674,0,0,0-2.2832-.34668l-3.22754,1.26172-3.42676-.52344A2.32294,2.32294,0,0,0,281.92538,105.88654Z"/><path class="cls-4" d="M294.319,119.57032l-10.01194,7.36491-3.26315-4.436a0.70044,0.70044,0,1,0-1.12844.8301l3.67815,5.00053a0.701,0.701,0,0,0,.97927.14917l10.57656-7.78025A0.70056,0.70056,0,0,0,294.319,119.57032Z"/><path class="cls-4" d="M283.90416,129.57872a1.67015,1.67015,0,0,1-1.10206-.6664l-3.67838-5.00042a1.68361,1.68361,0,0,1,2.71185-1.996l2.68064,3.64486,9.21985-6.78167a1.68361,1.68361,0,0,1,1.99673,2.71132l-10.5775,7.78038A1.69539,1.69539,0,0,1,283.90416,129.57872Z"/><path class="cls-25" d="M57.70894,16.17556c3.68194-1.2097,4.36912-2.01339,4.99839-5.84184,1.20944,3.68651,2.01184,4.37519,5.83582,5.00543-3.68194,1.2097-4.36912,2.01338-4.99839,5.84184-1.20944-3.68651-2.01184-4.37519-5.83582-5.00542"/><g class="cls-30"><rect class="cls-27" x="52.15418" y="4.77893" width="21.94374" height="21.95684" transform="translate(-1.0256 4.90572) rotate(-4.41456)"/></g><g class="cls-10"><path class="cls-11" d="M292.77586,97.77253c4.79719-1.17594,5.74921-2.12975,6.92438-6.93272,1.17516,4.803,2.12718,5.75678,6.92437,6.93272-4.79719,1.17594-5.74921,2.12975-6.92437,6.93272-1.17516-4.803-2.12718-5.75678-6.92438-6.93272"/><g class="cls-31"><rect class="cls-7" x="285.71713" y="83.78108" width="27.96621" height="27.9829"/></g></g><rect class="cls-4" x="143.33161" y="64.66565" width="37.38472" height="1.88923"/><rect class="cls-4" x="143.33161" y="77.64724" width="37.38472" height="1.88923"/></svg>