<?xml version="1.0" encoding="iso-8859-1"?>
<!-- Generator: Adobe Illustrator 19.0.0, SVG Export Plug-In . SVG Version: 6.00 Build 0)  -->
<svg version="1.1" id="Capa_1" xmlns="http://www.w3.org/2000/svg" xmlns:xlink="http://www.w3.org/1999/xlink" x="0px" y="0px"
	 viewBox="0 0 464 464" style="enable-background:new 0 0 464 464;" xml:space="preserve">
<path style="fill:#2A60A0;" d="M432,464H32c-17.7,0-32-14.3-32-32v-8h464v8C464,449.7,449.7,464,432,464z"/>
<path style="fill:#EA7E73;" d="M432,160v264H32V160c0-17.7,14.3-32,32-32h336C417.7,128,432,142.3,432,160z"/>
<rect x="64" y="160" style="fill:#FFFFFF;" width="336" height="232"/>
<polygon style="fill:#EFC062;" points="360,32 160,32 160,0 96,0 96,32 72,32 8,96 96,96 96,128 160,128 160,96 424,96 "/>
<rect x="96" y="264" style="fill:#61CCCC;" width="272" height="96"/>
<rect x="192" y="264" style="fill:#F6DDCB;" width="176" height="96"/>
<g>
	<rect x="216" y="288" style="fill:#2A60A0;" width="128" height="16"/>
	<rect x="216" y="320" style="fill:#2A60A0;" width="128" height="16"/>
	<polygon style="fill:#2A60A0;" points="197.7,269.7 186.3,258.3 144,300.7 101.7,258.3 90.3,269.7 132.7,312 90.3,354.3 
		101.7,365.7 144,323.3 186.3,365.7 197.7,354.3 155.3,312 	"/>
	<path style="fill:#2A60A0;" d="M352,32v44.7l-50.3-50.3c-2.3-2.3-5.7-3-8.7-1.7c-3,1.2-4.9,4.2-4.9,7.4v44.7l-50.3-50.3
		c-2.3-2.3-5.7-3-8.7-1.7c-3,1.2-4.9,4.2-4.9,7.4v44.7l-50.3-50.3l-11.3,11.3l61.7,61.7V181l-21.7,21.7c-3.1,3.1-3.1,8.2,0,11.3
		l15.8,15.8L157,257.1l6.5,14.6l68.5-30.5l60.6,30.3l7.2-14.3l-54.1-27l16.2-16.2l-11.3-11.3l-18.6,18L219.3,208l18.3-18.3
		c1.5-1.5,2.3-3.5,2.3-5.7V96V51.3l50.3,50.3c2.3,2.3,5.7,3,8.7,1.7c3-1.2,4.9-4.2,4.9-7.4V51.3l50.3,50.3c1.5,1.5,3.6,2.3,5.7,2.3
		c1,0,2.1-0.2,3.1-0.6c3-1.2,4.9-4.2,4.9-7.4V32H352z"/>
	<rect x="120" y="56" style="fill:#2A60A0;" width="16" height="16"/>
</g>
<g>
</g>
<g>
</g>
<g>
</g>
<g>
</g>
<g>
</g>
<g>
</g>
<g>
</g>
<g>
</g>
<g>
</g>
<g>
</g>
<g>
</g>
<g>
</g>
<g>
</g>
<g>
</g>
<g>
</g>
</svg>
